<svg width="99" height="28" viewBox="0 0 99 28" fill="none" xmlns="http://www.w3.org/2000/svg">
<mask id="mask0_4520_14041" style="mask-type:luminance" maskUnits="userSpaceOnUse" x="0" y="8" width="20" height="20">
<path d="M0 8.14062H19.49V27.4054H0V8.14062Z" fill="white"/>
</mask>
<g mask="url(#mask0_4520_14041)">
<mask id="mask1_4520_14041" style="mask-type:luminance" maskUnits="userSpaceOnUse" x="0" y="8" width="20" height="20">
<path d="M9.89102 22.0197H7.0617V21.8392C7.0617 20.9713 7.06463 20.1039 7.05779 19.238C7.05779 19.1166 7.09346 19.0364 7.17069 18.9516L9.69748 16.1436C9.74635 16.0886 9.78203 16.0213 9.8226 15.9601L9.86854 15.993L9.89102 22.0197ZM19.3394 25.4339L14.0453 19.4452C12.6744 17.8955 11.304 16.3462 9.93305 14.798C9.70432 14.5394 9.74098 14.5476 9.50638 14.7955L9.10464 15.2433C8.48687 15.9128 7.87056 16.5802 7.25231 17.2496L7.10471 17.3926L7.08125 17.2682C7.06365 16.7036 7.03628 16.1822 7.03628 15.6619L7.05241 9.61149C7.05339 9.37445 7.05339 9.37445 7.27185 9.37445H14.2873C14.2931 9.39039 14.2995 9.40684 14.3058 9.42484L14.2291 9.52048C13.4153 10.427 12.6421 11.2887 11.865 12.1449C11.7649 12.2544 11.7649 12.3274 11.8646 12.4359L13.0155 13.7116C13.0928 13.7943 13.2252 13.8612 13.3318 13.8622C13.8591 13.8663 14.3894 13.8782 14.9148 13.8267C15.6733 13.7506 16.3732 13.4941 16.9915 12.9974C18.3531 11.9047 18.2285 9.76831 16.7852 8.87415C16.0203 8.40008 15.19 8.15533 14.3078 8.15224L1.36688 8.14453C1.16943 8.14453 1.08585 8.2124 1.01401 8.39494C0.066826 10.8167 -0.223975 13.3172 0.171905 15.9051C0.569252 18.4976 1.57215 20.8083 3.24511 22.7534C6.29975 26.2992 10.1173 27.813 14.6431 27.3096C16.3067 27.124 17.8634 26.5599 19.3301 25.7141L19.4278 25.6478C19.4298 25.5362 19.3853 25.4842 19.3394 25.4339Z" fill="white"/>
</mask>
<g mask="url(#mask1_4520_14041)">
<path d="M-0.46875 -0.494141H26.5176V27.8969H-0.46875V-0.494141Z" fill="black"/>
</g>
</g>
<mask id="mask2_4520_14041" style="mask-type:luminance" maskUnits="userSpaceOnUse" x="2" y="0" width="25" height="24">
<path d="M2.90479 0H26.143V23.6729H2.90479V0Z" fill="white"/>
</mask>
<g mask="url(#mask2_4520_14041)">
<mask id="mask3_4520_14041" style="mask-type:luminance" maskUnits="userSpaceOnUse" x="2" y="0" width="25" height="24">
<path d="M15.8887 16.8796C16.2308 16.7983 16.5499 16.7444 16.8578 16.6467C18.4081 16.1566 19.6945 15.2733 20.5552 13.7986C21.0131 13.0155 21.301 12.1573 21.3069 11.2298C21.3171 9.3746 20.6255 7.85417 19.259 6.68338C18.2952 5.85914 17.177 5.39484 15.9615 5.17786C15.3124 5.06165 14.658 5.00612 13.9997 5.05651L13.6849 5.03954C10.1802 5.03851 6.67539 5.03851 3.17063 5.03851H2.93896C4.18281 3.45124 5.65148 2.23108 7.3782 1.36006C9.73638 0.171791 12.2202 -0.240067 14.8095 0.133228C20.3352 0.929694 24.6753 5.2992 25.7857 10.9079C26.8536 16.3078 24.666 21.1283 21.9618 23.6647L15.8887 16.8796Z" fill="white"/>
</mask>
<g mask="url(#mask3_4520_14041)">
<path d="M-0.468262 -0.492188H26.5181V27.8988H-0.468262V-0.492188Z" fill="black"/>
</g>
</g>
<mask id="mask4_4520_14041" style="mask-type:luminance" maskUnits="userSpaceOnUse" x="29" y="22" width="4" height="5">
<path d="M29.1914 22.0547H32.0202V26.0262H29.1914V22.0547Z" fill="white"/>
</mask>
<g mask="url(#mask4_4520_14041)">
<mask id="mask5_4520_14041" style="mask-type:luminance" maskUnits="userSpaceOnUse" x="29" y="22" width="4" height="5">
<path d="M29.5125 26.0252C29.4148 26.0252 29.3375 25.9938 29.2789 25.9306C29.2198 25.8673 29.1914 25.7804 29.1914 25.6755V22.41C29.1914 22.3046 29.2212 22.2187 29.2789 22.1534C29.3361 22.0881 29.4148 22.0547 29.5125 22.0547H31.6996C31.8863 22.0547 31.9802 22.1436 31.9802 22.3179V22.3555C31.9802 22.5313 31.8873 22.6193 31.6996 22.6193H29.793V23.7289H31.2681C31.4548 23.7289 31.5476 23.8137 31.5476 23.9808V23.9983C31.5476 24.1741 31.4548 24.2631 31.2681 24.2631H29.793V25.4663H31.7353C31.9181 25.4663 32.0095 25.5506 32.0095 25.7182V25.7486C32.0095 25.9326 31.9181 26.0252 31.7353 26.0252H29.5125Z" fill="white"/>
</mask>
<g mask="url(#mask5_4520_14041)">
<path d="M29.1914 22.0547H32.009V26.0262H29.1914V22.0547Z" fill="black"/>
</g>
</g>
<mask id="mask6_4520_14041" style="mask-type:luminance" maskUnits="userSpaceOnUse" x="34" y="22" width="5" height="5">
<path d="M34.9487 22.0293H38.1402V26.0533H34.9487V22.0293Z" fill="white"/>
</mask>
<g mask="url(#mask6_4520_14041)">
<mask id="mask7_4520_14041" style="mask-type:luminance" maskUnits="userSpaceOnUse" x="34" y="22" width="5" height="5">
<path d="M35.1936 26.0471C35.0304 26.0471 34.9487 25.9525 34.9487 25.7592V22.3846C34.9487 22.2782 34.9732 22.1933 35.022 22.127C35.0704 22.0607 35.1408 22.0293 35.2346 22.0293H35.3343C35.4233 22.0293 35.4917 22.0488 35.5406 22.0874L35.6955 22.2684L37.562 25.0542V22.3167C37.562 22.1249 37.6456 22.0293 37.8128 22.0293H37.8831C38.0464 22.0293 38.128 22.1249 38.128 22.3167V25.6918C38.128 25.8024 38.1036 25.8903 38.0547 25.9525C38.0058 26.0147 37.9374 26.0471 37.8484 26.0471H37.8015C37.7111 26.0471 37.6466 26.0332 37.608 26.0049L37.4804 25.8569L35.5147 22.9307V25.7592C35.5147 25.9515 35.4282 26.0471 35.2571 26.0471H35.1936Z" fill="white"/>
</mask>
<g mask="url(#mask7_4520_14041)">
<path d="M34.9487 22.0293H38.128V26.0533H34.9487V22.0293Z" fill="black"/>
</g>
</g>
<mask id="mask8_4520_14041" style="mask-type:luminance" maskUnits="userSpaceOnUse" x="41" y="22" width="4" height="5">
<path d="M41.2593 22.0547H44.0881V26.0262H41.2593V22.0547Z" fill="white"/>
</mask>
<g mask="url(#mask8_4520_14041)">
<mask id="mask9_4520_14041" style="mask-type:luminance" maskUnits="userSpaceOnUse" x="41" y="22" width="4" height="5">
<path d="M41.5804 26.0252C41.4826 26.0252 41.4054 25.9938 41.3468 25.9306C41.2876 25.8673 41.2593 25.7804 41.2593 25.6755V22.41C41.2593 22.3046 41.2891 22.2187 41.3468 22.1534C41.4039 22.0881 41.4826 22.0547 41.5804 22.0547H43.7675C43.9552 22.0547 44.048 22.1436 44.048 22.3179V22.3555C44.048 22.5313 43.9552 22.6193 43.7675 22.6193H41.8609V23.7289H43.3359C43.5226 23.7289 43.6155 23.8137 43.6155 23.9808V23.9983C43.6155 24.1741 43.5226 24.2631 43.3359 24.2631H41.8609V25.4663H43.8032C43.986 25.4663 44.0774 25.5506 44.0774 25.7182V25.7486C44.0774 25.9326 43.986 26.0252 43.8032 26.0252H41.5804Z" fill="white"/>
</mask>
<g mask="url(#mask9_4520_14041)">
<path d="M41.2593 22.0547H44.0769V26.0262H41.2593V22.0547Z" fill="black"/>
</g>
</g>
<mask id="mask10_4520_14041" style="mask-type:luminance" maskUnits="userSpaceOnUse" x="47" y="22" width="3" height="5">
<path d="M47.0049 22.0527H49.8323V26.0536H47.0049V22.0527Z" fill="white"/>
</mask>
<g mask="url(#mask10_4520_14041)">
<mask id="mask11_4520_14041" style="mask-type:luminance" maskUnits="userSpaceOnUse" x="47" y="22" width="3" height="5">
<path d="M47.6046 23.9753V22.5751H48.3817C48.9364 22.5751 49.215 22.8081 49.215 23.2749C49.215 23.4914 49.1495 23.6631 49.017 23.7876C48.8846 23.912 48.6793 23.9753 48.3997 23.9753H47.6046ZM48.6969 24.4092C49.0659 24.3768 49.3455 24.2596 49.5361 24.057C49.7267 23.8544 49.822 23.5829 49.822 23.2436C49.822 22.8477 49.7022 22.5484 49.4628 22.351C49.2242 22.1525 48.8743 22.0527 48.41 22.0527H47.3372C47.2404 22.0527 47.1618 22.0867 47.1036 22.1515C47.0454 22.2178 47.0166 22.3037 47.0166 22.4101V25.7235C47.0166 25.9394 47.1007 26.0464 47.2668 26.0464H47.3494C47.4389 26.0464 47.5044 26.0207 47.5474 25.9672C47.5889 25.9158 47.6104 25.8458 47.6104 25.7589V24.4709H48.0254L49.0576 25.8027C49.1231 25.8931 49.1851 25.9554 49.2433 25.9919L49.4476 26.0474C49.5097 26.0474 49.5639 26.0376 49.6118 26.0145L49.6964 25.9641C49.7575 25.9029 49.779 25.8736 49.7912 25.8458L49.8054 25.7985L48.6969 24.4092Z" fill="white"/>
</mask>
<g mask="url(#mask11_4520_14041)">
<path d="M47.0166 22.0527H49.822V26.0423H47.0166V22.0527Z" fill="black"/>
</g>
</g>
<mask id="mask12_4520_14041" style="mask-type:luminance" maskUnits="userSpaceOnUse" x="52" y="21" width="5" height="6">
<path d="M52.6333 21.9746H56.1967V26.104H52.6333V21.9746Z" fill="white"/>
</mask>
<g mask="url(#mask12_4520_14041)">
<mask id="mask13_4520_14041" style="mask-type:luminance" maskUnits="userSpaceOnUse" x="52" y="21" width="5" height="6">
<path d="M55.6718 25.4664C55.5555 25.6628 55.3903 25.8166 55.1762 25.9292C54.9622 26.0418 54.71 26.0978 54.4182 26.0978C54.146 26.0978 53.9001 26.0469 53.6807 25.9451C53.4607 25.8433 53.2731 25.7004 53.1176 25.5183C52.9617 25.3368 52.8425 25.1199 52.7589 24.8669C52.6744 24.6165 52.6333 24.3429 52.6333 24.0488C52.6333 23.7454 52.6802 23.4683 52.776 23.2143C52.8718 22.9608 53.0028 22.7413 53.1729 22.5577C53.3425 22.3741 53.5453 22.2302 53.7858 22.1283C54.0257 22.0265 54.2848 21.9746 54.5692 21.9746C54.7989 21.9746 55.0017 22.0029 55.1792 22.0605C55.3566 22.1176 55.5056 22.1875 55.6278 22.2723C55.7495 22.3577 55.8424 22.4451 55.9054 22.5392C55.9675 22.6338 55.9973 22.7197 55.9973 22.7968L55.9812 22.93C55.9147 23.0199 55.879 23.0544 55.8399 23.0791L55.7647 23.1187L55.6757 23.1264C55.5545 22.9264 55.3957 22.7772 55.1958 22.6744C54.9959 22.5716 54.7906 22.5212 54.5814 22.5212C54.3869 22.5212 54.208 22.5577 54.0448 22.6317C53.8811 22.7058 53.7403 22.8096 53.624 22.9449C53.5077 23.0801 53.4168 23.241 53.3513 23.4287C53.2853 23.6164 53.2516 23.8267 53.2516 24.0545C53.2516 24.2756 53.2819 24.4802 53.339 24.6684C53.3962 24.8571 53.4818 25.0191 53.5922 25.1564C53.7032 25.2936 53.838 25.4001 53.9979 25.4762C54.1572 25.5523 54.3356 25.5898 54.5345 25.5898C54.6865 25.5898 54.8273 25.5677 54.9578 25.5255C55.0882 25.4818 55.2026 25.4217 55.3018 25.344C55.4015 25.2659 55.4812 25.1728 55.5442 25.0643C55.6068 24.9558 55.6464 24.8365 55.6659 24.7049V24.4473H54.7794C54.6782 24.4473 54.602 24.4298 54.5511 24.3923C54.5008 24.3548 54.4754 24.2936 54.4754 24.2077V24.1768C54.4754 24.0869 54.5008 24.0241 54.5511 23.9876C54.602 23.9506 54.6782 23.9321 54.7794 23.9321H55.8751C55.9841 23.9321 56.0648 23.9645 56.1175 24.0308C56.1698 24.0971 56.1962 24.184 56.1962 24.2946V25.9873C56.1962 25.9955 56.1767 26.0084 56.1381 26.0238L56.0525 26.0479C55.9553 26.0479 55.9137 26.0408 55.8737 26.0269L55.7974 25.9868C55.7393 25.9127 55.7168 25.8613 55.6992 25.7929L55.6728 25.5384L55.6718 25.4664Z" fill="white"/>
</mask>
<g mask="url(#mask13_4520_14041)">
<path d="M52.6333 21.9746H56.1967V26.104H52.6333V21.9746Z" fill="black"/>
</g>
</g>
<mask id="mask14_4520_14041" style="mask-type:luminance" maskUnits="userSpaceOnUse" x="59" y="22" width="1" height="5">
<path d="M59.3135 22.0293H59.9176V26.0476H59.3135V22.0293Z" fill="white"/>
</mask>
<g mask="url(#mask14_4520_14041)">
<mask id="mask15_4520_14041" style="mask-type:luminance" maskUnits="userSpaceOnUse" x="59" y="22" width="1" height="5">
<path d="M59.5735 26.0471C59.4029 26.0471 59.3164 25.9525 59.3164 25.7592V22.3167C59.3164 22.1249 59.4029 22.0293 59.5735 22.0293H59.6551C59.8306 22.0293 59.918 22.1249 59.918 22.3167V25.7592C59.918 25.9515 59.8306 26.0471 59.6551 26.0471H59.5735Z" fill="white"/>
</mask>
<g mask="url(#mask15_4520_14041)">
<path d="M59.3164 22.0293H59.918V26.0476H59.3164V22.0293Z" fill="black"/>
</g>
</g>
<mask id="mask16_4520_14041" style="mask-type:luminance" maskUnits="userSpaceOnUse" x="62" y="22" width="5" height="5">
<path d="M62.7651 22.0039H66.3129V26.0608H62.7651V22.0039Z" fill="white"/>
</mask>
<g mask="url(#mask16_4520_14041)">
<mask id="mask17_4520_14041" style="mask-type:luminance" maskUnits="userSpaceOnUse" x="62" y="22" width="5" height="5">
<path d="M63.9196 24.3503L64.5305 22.6695L65.1376 24.3503H63.9196ZM64.9518 22.2221L64.8873 22.1064C64.7754 22.0375 64.6772 22.0195 64.5374 22.0195C64.402 22.0195 64.3033 22.0375 64.2451 22.0709C64.187 22.1064 64.1469 22.1548 64.1224 22.2211L62.7804 25.8671C62.773 25.8944 62.8038 25.933 62.8717 25.9834C62.9392 26.0317 63.0189 26.0574 63.1078 26.0574L63.294 25.9941C63.3536 25.954 63.4015 25.8779 63.4411 25.7684L63.7735 24.8599H65.2842L65.6165 25.7623C65.6595 25.8769 65.7128 25.9546 65.7778 25.9952L65.9728 26.0584C66.0188 26.0584 66.0637 26.0507 66.1033 26.0358L66.18 26.0034C66.2431 25.9576 66.2675 25.9371 66.2846 25.9165L66.3086 25.879L64.9518 22.2221Z" fill="white"/>
</mask>
<g mask="url(#mask17_4520_14041)">
<path d="M62.7793 22.0195H66.3051V26.062H62.7793V22.0195Z" fill="black"/>
</g>
</g>
<mask id="mask18_4520_14041" style="mask-type:luminance" maskUnits="userSpaceOnUse" x="29" y="3" width="12" height="16">
<path d="M29.2505 3.91406H40.4133V18.488H29.2505V3.91406Z" fill="white"/>
</mask>
<g mask="url(#mask18_4520_14041)">
<mask id="mask19_4520_14041" style="mask-type:luminance" maskUnits="userSpaceOnUse" x="29" y="3" width="12" height="16">
<path d="M34.7347 10.823H32.3335V6.48589H34.6716C36.3715 6.48589 37.2204 7.21037 37.2204 8.6547C37.2204 9.32622 37.0185 9.85429 36.6153 10.2425C36.2116 10.6302 35.5841 10.823 34.7347 10.823ZM40.3659 17.2616L36.7971 12.7013C37.9731 12.4931 38.8606 12.0195 39.4632 11.2817C40.0658 10.5433 40.3669 9.59463 40.3669 8.43104C40.3669 6.94197 39.9139 5.8154 39.0072 5.0575C38.0996 4.29651 36.7468 3.91602 34.9487 3.91602H30.8892C30.3785 3.91602 29.9782 4.07593 29.6869 4.3978C29.3971 4.71762 29.2524 5.16907 29.2524 5.74958V16.6584C29.2524 17.24 29.3663 17.6863 29.5921 17.9999C29.8184 18.312 30.1449 18.4689 30.5711 18.4689H31.0168C31.4699 18.4689 31.8095 18.3398 32.0358 18.0781C32.2631 17.8174 32.3775 17.4493 32.3775 16.9705V13.2386H33.5656L36.499 17.1284C36.8245 17.605 37.1368 17.9495 37.4345 18.1578C37.7311 18.366 38.1055 18.4699 38.5586 18.4699C38.8982 18.4699 39.1881 18.4144 39.4295 18.3033C39.6705 18.1897 39.866 18.0642 40.015 17.9218C40.1621 17.7809 40.2657 17.6477 40.3219 17.5212C40.3791 17.3937 40.3923 17.3078 40.365 17.2626" fill="white"/>
</mask>
<g mask="url(#mask19_4520_14041)">
<path d="M28.7827 3.42188H72.9136V19.1645H28.7827V3.42188Z" fill="black"/>
</g>
</g>
<mask id="mask20_4520_14041" style="mask-type:luminance" maskUnits="userSpaceOnUse" x="40" y="7" width="12" height="12">
<path d="M40.5903 7.21875H51.2283V18.6706H40.5903V7.21875Z" fill="white"/>
</mask>
<g mask="url(#mask20_4520_14041)">
<mask id="mask21_4520_14041" style="mask-type:luminance" maskUnits="userSpaceOnUse" x="40" y="7" width="12" height="12">
<path d="M43.3468 11.9427C43.445 11.1972 43.7354 10.5894 44.2168 10.1215C44.6992 9.65051 45.2939 9.41656 46.0021 9.41656C46.725 9.41656 47.3022 9.64743 47.7337 10.1097C48.1673 10.5714 48.396 11.1828 48.4253 11.9427H43.3468ZM50.8348 10.4778C50.5875 9.81505 50.2327 9.24071 49.7738 8.75584C49.3129 8.272 48.7689 7.89613 48.137 7.62773C47.5075 7.35881 46.8095 7.22461 46.0447 7.22461C45.2656 7.22461 44.5432 7.37012 43.8771 7.66115C43.2114 7.95012 42.6371 8.35324 42.1557 8.86742C41.6734 9.38263 41.298 9.99399 41.0297 10.702C40.7614 11.4095 40.6255 12.1808 40.6255 13.0148C40.6255 13.8797 40.7604 14.6576 41.0297 15.3507C41.299 16.0428 41.6782 16.6362 42.167 17.1288C42.6562 17.6203 43.2427 17.9993 43.9313 18.2677C44.618 18.5366 45.3868 18.6687 46.2358 18.6687C46.9586 18.6687 47.6003 18.5957 48.1594 18.4456C48.7191 18.2965 49.1863 18.1042 49.5626 17.8651C49.937 17.627 50.2249 17.3576 50.4233 17.0604C50.6212 16.7632 50.7214 16.4721 50.7214 16.1888C50.7214 15.8747 50.6462 15.6212 50.4971 15.4278C50.348 15.234 50.1858 15.0849 50.0084 14.9815C49.8319 14.8766 49.6638 14.8108 49.5089 14.779C49.3544 14.7502 49.2752 14.7414 49.2752 14.7563C49.0343 15.1898 48.6844 15.5646 48.2225 15.8865C47.7626 16.2063 47.136 16.3662 46.3438 16.3662C45.5359 16.3662 44.8634 16.1405 44.3243 15.6844C43.7847 15.2304 43.4592 14.5933 43.3478 13.7742H50.4859C50.7683 13.7742 50.958 13.7002 51.0499 13.5511C51.1417 13.402 51.1945 13.1855 51.2092 12.9012V12.6811C51.2092 11.8764 51.0846 11.1411 50.8358 10.4778" fill="white"/>
</mask>
<g mask="url(#mask21_4520_14041)">
<path d="M28.7827 3.42188H72.9136V19.1645H28.7827V3.42188Z" fill="black"/>
</g>
</g>
<mask id="mask22_4520_14041" style="mask-type:luminance" maskUnits="userSpaceOnUse" x="51" y="7" width="10" height="12">
<path d="M51.5791 7.23633H60.7562V18.6717H51.5791V7.23633Z" fill="white"/>
</mask>
<g mask="url(#mask22_4520_14041)">
<mask id="mask23_4520_14041" style="mask-type:luminance" maskUnits="userSpaceOnUse" x="51" y="7" width="10" height="12">
<path d="M56.1371 18.6269C54.622 18.6269 53.492 18.3883 52.7476 17.9111C52.0038 17.4345 51.6328 16.8838 51.6328 16.2575C51.6328 16.0482 51.6788 15.8616 51.7711 15.6981C51.863 15.5341 51.9622 15.3968 52.0683 15.2842C52.1743 15.1716 52.277 15.0867 52.3762 15.0276L52.5321 14.9458C52.9138 15.3623 53.385 15.7058 53.9592 15.9891C54.5335 16.2724 55.2026 16.4138 55.9675 16.4138C56.5623 16.4138 57.0158 16.3249 57.3271 16.1459C57.6385 15.9675 57.7944 15.7068 57.7944 15.3634C57.7944 15.1551 57.7445 14.987 57.6463 14.861C57.5466 14.7345 57.4014 14.6271 57.2098 14.5371C57.0183 14.4471 56.7846 14.3689 56.509 14.3021C56.2328 14.2337 55.9176 14.1638 55.5638 14.0887C55.2094 13.9987 54.8199 13.8954 54.3947 13.7756C53.9695 13.6563 53.5726 13.4779 53.2036 13.2388C52.8351 12.9997 52.5272 12.687 52.2794 12.2988C52.0306 11.9122 51.908 11.4057 51.908 10.7794C51.908 10.2437 52.0101 9.75879 52.2159 9.32739C52.4212 8.896 52.712 8.52681 53.0873 8.22088C53.4627 7.91442 53.9191 7.67687 54.4577 7.50514C54.9963 7.3334 55.5902 7.24805 56.2421 7.24805C57.6453 7.24805 58.6932 7.47943 59.3877 7.94116C60.0812 8.40341 60.4287 8.94741 60.4287 9.57317C60.4287 9.78141 60.3823 9.97218 60.2904 10.1439C60.1985 10.3156 60.0915 10.4606 59.9717 10.5794C59.8505 10.6987 59.7405 10.7887 59.6413 10.8478L59.4854 10.9296C59.1174 10.4822 58.6756 10.1321 58.1433 9.8642C57.6116 9.59682 57.0427 9.46159 56.4327 9.46159C55.8663 9.46159 55.4308 9.55466 55.1258 9.74079C54.8209 9.92744 54.6689 10.1922 54.6689 10.5347C54.6689 10.728 54.7182 10.889 54.8179 11.0154C54.9172 11.1419 55.0628 11.2463 55.2534 11.3286C55.444 11.4103 55.6747 11.4844 55.944 11.5517C56.2133 11.6186 56.5246 11.689 56.8785 11.7641C57.2465 11.8525 57.6536 11.9585 58.1003 12.0767C58.547 12.1955 58.961 12.378 59.3437 12.6248C59.7264 12.8716 60.0475 13.1873 60.3104 13.5745C60.5719 13.9622 60.7034 14.4687 60.7034 15.095C60.7034 16.1974 60.3002 17.0612 59.4918 17.688C58.6839 18.3153 57.5681 18.6269 56.1371 18.6269Z" fill="white"/>
</mask>
<g mask="url(#mask23_4520_14041)">
<path d="M28.7832 3.42383H72.9141V19.1665H28.7832V3.42383Z" fill="black"/>
</g>
</g>
<mask id="mask24_4520_14041" style="mask-type:luminance" maskUnits="userSpaceOnUse" x="61" y="7" width="12" height="12">
<path d="M61.3408 7.21875H72.4441V18.6706H61.3408V7.21875Z" fill="white"/>
</mask>
<g mask="url(#mask24_4520_14041)">
<mask id="mask25_4520_14041" style="mask-type:luminance" maskUnits="userSpaceOnUse" x="61" y="7" width="12" height="12">
<path d="M69.5785 14.255C69.429 14.6504 69.2281 14.9882 68.973 15.2715C68.7179 15.5559 68.4119 15.779 68.059 15.942C67.7052 16.1066 67.3235 16.1899 66.9115 16.1899C66.4853 16.1899 66.0967 16.1066 65.7424 15.942C65.3886 15.779 65.0846 15.5559 64.8289 15.2715C64.5738 14.9893 64.371 14.6458 64.2239 14.2447C64.0748 13.8421 63.9995 13.4097 63.9995 12.9469C63.9995 12.4698 64.0748 12.0343 64.2239 11.6389C64.371 11.2445 64.5738 10.901 64.8289 10.611C65.0846 10.3205 65.3886 10.0937 65.7424 9.93074C66.0967 9.76569 66.4853 9.68291 66.9115 9.68291C67.3377 9.68291 67.7257 9.76569 68.0805 9.93074C68.4344 10.0937 68.7384 10.3205 68.9935 10.611C69.2501 10.902 69.4471 11.2476 69.5888 11.6507C69.7315 12.0533 69.8024 12.4924 69.8024 12.9696C69.8024 13.4313 69.7276 13.8601 69.58 14.255M72.034 10.6336C71.7657 9.9256 71.3883 9.32041 70.9079 8.8232C70.4275 8.32341 69.8493 7.93264 69.1768 7.64829C68.5038 7.36498 67.757 7.22461 66.9349 7.22461C66.1129 7.22461 65.3583 7.36498 64.6716 7.64829C63.9844 7.93264 63.3964 8.32341 62.9072 8.8232C62.4185 9.32041 62.0412 9.922 61.7719 10.6218C61.5016 11.3216 61.3677 12.0975 61.3677 12.9469C61.3677 13.7969 61.5006 14.5748 61.7719 15.2823C62.0412 15.9904 62.4155 16.5945 62.8969 17.0938C63.3793 17.5915 63.9604 17.9797 64.6398 18.2558C65.3201 18.5304 66.0718 18.6698 66.8919 18.6698C67.7277 18.6698 68.4872 18.5304 69.1655 18.2558C69.8459 17.9797 70.4265 17.5915 70.9079 17.0938C71.3883 16.5945 71.7657 15.995 72.034 15.2931C72.3023 14.5933 72.4387 13.8195 72.4387 12.9685C72.4387 12.1196 72.3033 11.3406 72.034 10.6326" fill="white"/>
</mask>
<g mask="url(#mask25_4520_14041)">
<path d="M28.7832 3.42188H72.9141V19.1645H28.7832V3.42188Z" fill="black"/>
</g>
</g>
<mask id="mask26_4520_14041" style="mask-type:luminance" maskUnits="userSpaceOnUse" x="72" y="21" width="4" height="6">
<path d="M72.2227 21.9746H75.0686V26.1107H72.2227V21.9746Z" fill="white"/>
</mask>
<g mask="url(#mask26_4520_14041)">
<mask id="mask27_4520_14041" style="mask-type:luminance" maskUnits="userSpaceOnUse" x="72" y="21" width="4" height="6">
<path d="M73.6405 26.1045C73.4147 26.1045 73.2138 26.0788 73.0374 26.0284C72.861 25.978 72.7109 25.9107 72.5907 25.832C72.4704 25.7528 72.3786 25.6659 72.3165 25.5744C72.2544 25.4813 72.2227 25.3944 72.2227 25.3127L72.2368 25.2109C72.2911 25.126 72.3214 25.0885 72.3541 25.0571L72.4186 25.0036L72.4929 24.9661L72.9519 25.4037C73.1459 25.5219 73.3732 25.5811 73.6341 25.5811C73.8976 25.5811 74.1014 25.5271 74.2441 25.4191C74.3868 25.3116 74.4572 25.1584 74.4572 24.961C74.4572 24.8504 74.4318 24.7599 74.3809 24.6849L74.1737 24.5013C74.0862 24.4519 73.9851 24.4113 73.8717 24.3789L73.512 24.2869C73.3678 24.2514 73.2241 24.2072 73.0804 24.1583C72.9367 24.11 72.8091 24.0411 72.6987 23.9552C72.5877 23.8694 72.4978 23.7598 72.4274 23.6277C72.3571 23.495 72.3224 23.3284 72.3224 23.1269C72.3224 22.9593 72.3551 22.805 72.4206 22.6641C72.4866 22.5227 72.5804 22.4014 72.7011 22.2985C72.8223 22.1962 72.9641 22.1181 73.1302 22.0615C73.2964 22.0055 73.4782 21.9746 73.6811 21.9746C73.8912 21.9746 74.0769 21.9988 74.2372 22.0451C74.4 22.0924 74.5339 22.1505 74.6429 22.2209C74.7519 22.2908 74.8345 22.3659 74.8917 22.4477C74.9489 22.5294 74.9757 22.6076 74.9757 22.6806L74.963 22.7891C74.9073 22.8791 74.8775 22.9166 74.8418 22.9474L74.7744 23.0004L74.7001 23.0343L74.2817 22.6502C74.1072 22.5474 73.9088 22.497 73.6874 22.497C73.4504 22.497 73.2607 22.5525 73.119 22.6631C72.9773 22.7736 72.9049 22.9197 72.9049 23.1032C72.9049 23.2138 72.9274 23.3027 72.9724 23.3706L73.1566 23.5367C73.2344 23.5789 73.3272 23.6154 73.4362 23.6431L73.7984 23.7352C73.9577 23.7717 74.1136 23.819 74.2646 23.876C74.4156 23.9336 74.551 24.0077 74.6673 24.0971C74.7837 24.1871 74.8785 24.2987 74.9508 24.4319C75.0227 24.5656 75.0583 24.727 75.0583 24.9198C75.0583 25.289 74.9327 25.5775 74.6825 25.7873C74.4318 25.9986 74.0838 26.1035 73.6405 26.1035" fill="white"/>
</mask>
<g mask="url(#mask27_4520_14041)">
<path d="M72.2227 21.9746H75.0578V26.0989H72.2227V21.9746Z" fill="black"/>
</g>
</g>
<mask id="mask28_4520_14041" style="mask-type:luminance" maskUnits="userSpaceOnUse" x="77" y="21" width="5" height="6">
<path d="M77.8364 21.9629H81.6877V26.1211H77.8364V21.9629Z" fill="white"/>
</mask>
<g mask="url(#mask28_4520_14041)">
<mask id="mask29_4520_14041" style="mask-type:luminance" maskUnits="userSpaceOnUse" x="77" y="21" width="5" height="6">
<path d="M80.9697 24.658C80.9052 24.8426 80.8158 24.9989 80.7014 25.13C80.588 25.2611 80.4492 25.363 80.2914 25.437C80.132 25.511 79.9566 25.5486 79.766 25.5486C79.5754 25.5486 79.3999 25.511 79.2406 25.437C79.0817 25.363 78.9439 25.2591 78.8276 25.1228C78.7113 24.9886 78.6204 24.8287 78.5553 24.6441C78.4923 24.4595 78.4596 24.2585 78.4596 24.0379C78.4596 23.8168 78.4913 23.6127 78.5553 23.4271C78.6204 23.2414 78.7093 23.0826 78.8246 22.952C78.94 22.8219 79.0763 22.719 79.2367 22.645C79.397 22.571 79.57 22.5355 79.7601 22.5355C79.9507 22.5355 80.1262 22.573 80.286 22.6491C80.4453 22.7252 80.5841 22.8286 80.7004 22.9612C80.8158 23.0954 80.9062 23.2533 80.9707 23.4399C81.0357 23.6276 81.0665 23.8307 81.0665 24.0508C81.0665 24.2719 81.0357 24.4745 80.9707 24.659M81.5328 23.2039C81.4389 22.9504 81.3104 22.7329 81.1423 22.5504C80.9756 22.3699 80.7737 22.2275 80.5392 22.1267C80.3046 22.0259 80.0455 21.9766 79.766 21.9766C79.4864 21.9766 79.2293 22.028 78.9962 22.1298C78.7636 22.2316 78.5612 22.3756 78.3921 22.5602C78.223 22.7447 78.091 22.9633 77.9953 23.2168C77.8995 23.4703 77.8525 23.7489 77.8525 24.0508C77.8525 24.3552 77.9004 24.6313 77.9923 24.8822C78.0862 25.1341 78.2167 25.3511 78.3848 25.5337C78.5505 25.7147 78.7513 25.8566 78.9869 25.9573C79.2225 26.0581 79.4805 26.1075 79.7601 26.1075C80.0416 26.1075 80.2977 26.0561 80.5333 25.9532C80.7689 25.8509 80.9717 25.7095 81.1408 25.527C81.3094 25.346 81.4399 25.1269 81.5337 24.8745C81.6276 24.6215 81.6755 24.3423 81.6755 24.04C81.6755 23.7361 81.6276 23.4574 81.5337 23.2049" fill="white"/>
</mask>
<g mask="url(#mask29_4520_14041)">
<path d="M77.8525 21.9766H81.674V26.107H77.8525V21.9766Z" fill="black"/>
</g>
</g>
<mask id="mask30_4520_14041" style="mask-type:luminance" maskUnits="userSpaceOnUse" x="84" y="22" width="4" height="5">
<path d="M84.6572 22.0293H87.187V26.0265H84.6572V22.0293Z" fill="white"/>
</mask>
<g mask="url(#mask30_4520_14041)">
<mask id="mask31_4520_14041" style="mask-type:luminance" maskUnits="userSpaceOnUse" x="84" y="22" width="4" height="5">
<path d="M84.9778 26.0235C84.8806 26.0235 84.8034 25.9921 84.7442 25.9288C84.6851 25.8656 84.6572 25.7797 84.6572 25.6738V22.3172C84.6572 22.1249 84.7418 22.0293 84.9084 22.0293H84.9959C85.1704 22.0293 85.2584 22.1249 85.2584 22.3172V25.4527H86.8971C87.0838 25.4527 87.1777 25.5427 87.1777 25.7232V25.7479C87.1777 25.9314 87.0848 26.0245 86.8971 26.0245L84.9778 26.0235Z" fill="white"/>
</mask>
<g mask="url(#mask31_4520_14041)">
<path d="M84.6572 22.0293H87.1772V26.0265H84.6572V22.0293Z" fill="black"/>
</g>
</g>
<mask id="mask32_4520_14041" style="mask-type:luminance" maskUnits="userSpaceOnUse" x="89" y="22" width="5" height="5">
<path d="M89.8442 22.0176H93.3974V26.0601H89.8442V22.0176Z" fill="white"/>
</mask>
<g mask="url(#mask32_4520_14041)">
<mask id="mask33_4520_14041" style="mask-type:luminance" maskUnits="userSpaceOnUse" x="89" y="22" width="5" height="5">
<path d="M90.9968 24.3484L91.6096 22.6675L92.2167 24.3484H90.9968ZM92.029 22.2202L91.9659 22.1045C91.8545 22.0356 91.7558 22.0176 91.616 22.0176C91.4791 22.0176 91.3824 22.0356 91.3242 22.069C91.2661 22.1045 91.224 22.1528 91.2015 22.2191L89.8595 25.8652C89.8521 25.8924 89.8829 25.931 89.9504 25.9814C90.0183 26.0297 90.098 26.0554 90.1869 26.0554L90.3726 25.9922C90.4308 25.9521 90.4806 25.876 90.5193 25.7665L90.8521 24.8579H92.3633L92.6951 25.7603C92.7386 25.875 92.79 25.9526 92.855 25.9932L93.0519 26.0565C93.0979 26.0565 93.1428 26.0488 93.1824 26.0338L93.2591 26.0015C93.3212 25.9557 93.3466 25.9351 93.3632 25.9146L93.3877 25.877L92.029 22.2202Z" fill="white"/>
</mask>
<g mask="url(#mask33_4520_14041)">
<path d="M89.8584 22.0176H93.3842V26.0601H89.8584V22.0176Z" fill="black"/>
</g>
</g>
<mask id="mask34_4520_14041" style="mask-type:luminance" maskUnits="userSpaceOnUse" x="73" y="2" width="4" height="17">
<path d="M73.6948 2.80859H76.7372V18.506H73.6948V2.80859Z" fill="white"/>
</mask>
<g mask="url(#mask34_4520_14041)">
<mask id="mask35_4520_14041" style="mask-type:luminance" maskUnits="userSpaceOnUse" x="73" y="2" width="4" height="17">
<path d="M75.0701 18.4688C74.6733 18.4688 74.3473 18.3639 74.0922 18.1556C73.837 17.9474 73.7104 17.5525 73.7104 16.971V3.20018C73.7104 3.14002 73.8238 3.06598 74.0501 2.976C74.2764 2.88653 74.5389 2.8418 74.8365 2.8418C75.0628 2.8418 75.2857 2.87933 75.5066 2.95337C75.726 3.02844 75.924 3.15956 76.1014 3.34518C76.2788 3.5308 76.4235 3.7884 76.5378 4.11645C76.6502 4.44398 76.7064 4.86098 76.7064 5.36797V16.971C76.7064 17.5376 76.5828 17.9289 76.335 18.1448C76.0872 18.3613 75.772 18.4698 75.3893 18.4698L75.0701 18.4688Z" fill="white"/>
</mask>
<g mask="url(#mask35_4520_14041)">
<path d="M73.2412 2.34766H99.3992V19.1614H73.2412V2.34766Z" fill="black"/>
</g>
</g>
<mask id="mask36_4520_14041" style="mask-type:luminance" maskUnits="userSpaceOnUse" x="77" y="7" width="12" height="12">
<path d="M77.6113 7.35156H88.4741V18.5401H77.6113V7.35156Z" fill="white"/>
</mask>
<g mask="url(#mask36_4520_14041)">
<mask id="mask37_4520_14041" style="mask-type:luminance" maskUnits="userSpaceOnUse" x="77" y="7" width="12" height="12">
<path d="M83.0389 15.4983L85.2065 8.94819C85.4044 8.32192 85.6454 7.90029 85.9288 7.68434C86.2123 7.46787 86.5163 7.35938 86.8418 7.35938C87.0681 7.35938 87.2851 7.40102 87.4904 7.48278C87.6961 7.56505 87.873 7.65451 88.0216 7.75169C88.1697 7.84836 88.2831 7.94811 88.3613 8.05249C88.439 8.15738 88.4703 8.23143 88.4571 8.27565L84.7382 17.6867C84.6107 18.0147 84.3834 18.2348 84.0579 18.3464C83.7319 18.458 83.3991 18.514 83.0594 18.514C82.6904 18.514 82.3507 18.4621 82.0394 18.3582C81.7276 18.2543 81.5072 18.0374 81.3806 17.7098L77.6207 8.2777C77.6065 8.23297 77.6422 8.15841 77.7263 8.05455C77.8108 7.95068 77.9281 7.85042 78.0767 7.75324C78.2248 7.65657 78.3993 7.56659 78.5972 7.48484C78.7951 7.40308 79.0082 7.36143 79.2345 7.36143C79.6025 7.36143 79.929 7.46992 80.2125 7.68639C80.4955 7.90235 80.7369 8.32295 80.9349 8.94974L83.0389 15.4983Z" fill="white"/>
</mask>
<g mask="url(#mask37_4520_14041)">
<path d="M73.2412 2.35156H99.3992V19.1653H73.2412V2.35156Z" fill="black"/>
</g>
</g>
<mask id="mask38_4520_14041" style="mask-type:luminance" maskUnits="userSpaceOnUse" x="88" y="7" width="11" height="12">
<path d="M88.3496 7.21875H98.9626V18.6706H88.3496V7.21875Z" fill="white"/>
</mask>
<g mask="url(#mask38_4520_14041)">
<mask id="mask39_4520_14041" style="mask-type:luminance" maskUnits="userSpaceOnUse" x="88" y="7" width="11" height="12">
<path d="M91.0919 11.9427C91.1916 11.1972 91.4824 10.5889 91.9629 10.121C92.4433 9.65051 93.04 9.41605 93.7487 9.41605C94.4711 9.41605 95.0483 9.64743 95.4798 10.1092C95.9114 10.5714 96.1421 11.1823 96.1695 11.9427H91.0919ZM98.5819 10.4773C98.3346 9.81505 97.9798 9.24071 97.5198 8.75584C97.059 8.272 96.514 7.89613 95.8835 7.62721C95.2526 7.35881 94.5547 7.22461 93.7888 7.22461C93.0102 7.22461 92.2874 7.36961 91.6222 7.66115C90.9551 7.95012 90.3828 8.35324 89.9013 8.86742C89.419 9.38263 89.0436 9.99399 88.7753 10.7015C88.5065 11.4095 88.3706 12.1803 88.3706 13.0148C88.3706 13.8797 88.506 14.6576 88.7753 15.3507C89.0436 16.0428 89.4214 16.6357 89.9126 17.1288C90.4013 17.6203 90.9878 17.9993 91.6765 18.2677C92.3617 18.5361 93.1319 18.6687 93.9814 18.6687C94.7037 18.6687 95.344 18.5957 95.905 18.4456C96.4642 18.2965 96.9314 18.1036 97.3058 17.8651C97.6821 17.627 97.9685 17.3576 98.1665 17.0604C98.3663 16.7632 98.4646 16.4721 98.4646 16.1888C98.4646 15.8747 98.3908 15.6212 98.2422 15.4273C98.0941 15.234 97.9309 15.0849 97.7535 14.9815C97.5751 14.8766 97.4089 14.8103 97.2545 14.779C97.0976 14.7502 97.0208 14.7414 97.0208 14.7563C96.7794 15.1898 96.4295 15.5646 95.9676 15.8865C95.5072 16.2063 94.8802 16.3662 94.0874 16.3662C93.28 16.3662 92.6075 16.1405 92.0679 15.6844C91.5303 15.2299 91.2043 14.5933 91.0909 13.7737H98.231C98.5135 13.7737 98.7011 13.6997 98.793 13.5506C98.8854 13.402 98.9396 13.1855 98.9528 12.9012V12.6801C98.9528 11.8754 98.8282 11.1401 98.5814 10.4768" fill="white"/>
</mask>
<g mask="url(#mask39_4520_14041)">
<path d="M73.2417 2.34961H99.3996V19.1633H73.2417V2.34961Z" fill="black"/>
</g>
</g>
<mask id="mask40_4520_14041" style="mask-type:luminance" maskUnits="userSpaceOnUse" x="96" y="22" width="3" height="5">
<path d="M96.1836 22.0527H99.0002V26.0536H96.1836V22.0527Z" fill="white"/>
</mask>
<g mask="url(#mask40_4520_14041)">
<mask id="mask41_4520_14041" style="mask-type:luminance" maskUnits="userSpaceOnUse" x="96" y="22" width="3" height="5">
<path d="M96.7838 23.9753V22.5751H97.5599C98.1166 22.5751 98.3942 22.8081 98.3942 23.2749C98.3942 23.4914 98.3287 23.6631 98.1962 23.7876C98.0638 23.912 97.8585 23.9753 97.577 23.9753H96.7838ZM97.8741 24.4092C98.2431 24.3768 98.5227 24.2596 98.7133 24.057C98.9059 23.8544 99.0002 23.5829 99.0002 23.2436C99.0002 22.8477 98.8805 22.5484 98.641 22.351C98.402 22.1525 98.0516 22.0527 97.5892 22.0527H96.5154C96.4182 22.0527 96.34 22.0867 96.2828 22.1515C96.2246 22.2178 96.1958 22.3037 96.1958 22.4101V25.7235C96.1958 25.9394 96.2784 26.0464 96.446 26.0464H96.5277C96.6171 26.0464 96.6826 26.0207 96.7256 25.9672C96.7691 25.9158 96.7906 25.8458 96.7906 25.7589V24.4709H97.2046L98.2368 25.8027C98.3023 25.8931 98.3663 25.9554 98.4245 25.9919L98.6288 26.0474C98.6898 26.0474 98.7451 26.0376 98.791 26.0145L98.8775 25.9641C98.9396 25.9029 98.9601 25.8736 98.9733 25.8458L98.9855 25.7985L97.8741 24.4092Z" fill="white"/>
</mask>
<g mask="url(#mask41_4520_14041)">
<path d="M96.1958 22.0527H99.0012V26.0423H96.1958V22.0527Z" fill="black"/>
</g>
</g>
</svg>
